0
SECTION
2
HEADER
9
$INSUNITS
70
4
0
ENDSEC
0
SECTION
2
TABLES
0
TABLE
2
LAYER
70
13
0
LAYER
2
V-WALL
70
0
62
7
6
CONTINUOUS
0
LAYER
2
V-FIX
70
0
62
5
6
CONTINUOUS
0
LAYER
2
V-STAIR
70
0
62
4
6
CONTINUOUS
0
LAYER
2
V-TEXT
70
0
62
3
6
CONTINUOUS
0
LAYER
2
W-EXT-200
70
0
62
1
6
CONTINUOUS
0
LAYER
2
W-INT-100
70
0
62
2
6
CONTINUOUS
0
LAYER
2
O-DOOR
70
0
62
6
6
CONTINUOUS
0
LAYER
2
O-WIN
70
0
62
4
6
CONTINUOUS
0
LAYER
2
O-OPEN
70
0
62
30
6
CONTINUOUS
0
LAYER
2
S-RUN-7
70
0
62
3
6
CONTINUOUS
0
LAYER
2
S-LAND
70
0
62
6
6
CONTINUOUS
0
LAYER
2
S-UP
70
0
62
3
6
CONTINUOUS
0
LAYER
2
GRID
70
0
62
8
6
CONTINUOUS
0
ENDTAB
0
ENDSEC
0
SECTION
2
ENTITIES
0
LINE
8
W-EXT-200
10
0.0
20
0.0
30
0
11
7280.0
21
0.0
31
0
0
LINE
8
O-WIN
10
910.0
20
0.0
30
0
11
2730.0
21
0.0
31
0
0
LINE
8
O-DOOR
10
4095.0
20
0.0
30
0
11
5005.0
21
0.0
31
0
0
LINE
8
O-WIN
10
5915.0
20
0.0
30
0
11
6825.0
21
0.0
31
0
0
LINE
8
V-WALL
10
-100.0
20
-100.0
30
0
11
910.0
21
-100.0
31
0
0
LINE
8
V-WALL
10
-100.0
20
100.0
30
0
11
910.0
21
100.0
31
0
0
LINE
8
V-WALL
10
2730.0
20
-100.0
30
0
11
4095.0
21
-100.0
31
0
0
LINE
8
V-WALL
10
2730.0
20
100.0
30
0
11
4095.0
21
100.0
31
0
0
LINE
8
V-WALL
10
5005.0
20
-100.0
30
0
11
5915.0
21
-100.0
31
0
0
LINE
8
V-WALL
10
5005.0
20
100.0
30
0
11
5915.0
21
100.0
31
0
0
LINE
8
V-WALL
10
6825.0
20
-100.0
30
0
11
7380.0
21
-100.0
31
0
0
LINE
8
V-WALL
10
6825.0
20
100.0
30
0
11
7380.0
21
100.0
31
0
0
LINE
8
V-WALL
10
910.0
20
-100.0
30
0
11
910.0
21
100.0
31
0
0
LINE
8
V-WALL
10
2730.0
20
-100.0
30
0
11
2730.0
21
100.0
31
0
0
LINE
8
V-FIX
10
910.0
20
-33.3
30
0
11
2730.0
21
-33.3
31
0
0
LINE
8
V-FIX
10
910.0
20
33.3
30
0
11
2730.0
21
33.3
31
0
0
LINE
8
V-WALL
10
4095.0
20
-100.0
30
0
11
4095.0
21
100.0
31
0
0
LINE
8
V-WALL
10
5005.0
20
-100.0
30
0
11
5005.0
21
100.0
31
0
0
ARC
8
V-FIX
10
4185.0
20
0.0
30
0
40
730.0
50
0.0
51
90.0
0
LINE
8
V-FIX
10
4185.0
20
0.0
30
0
11
4185.0
21
730.0
31
0
0
LINE
8
V-WALL
10
5915.0
20
-100.0
30
0
11
5915.0
21
100.0
31
0
0
LINE
8
V-WALL
10
6825.0
20
-100.0
30
0
11
6825.0
21
100.0
31
0
0
LINE
8
V-FIX
10
5915.0
20
-33.3
30
0
11
6825.0
21
-33.3
31
0
0
LINE
8
V-FIX
10
5915.0
20
33.3
30
0
11
6825.0
21
33.3
31
0
0
LINE
8
W-EXT-200
10
0.0
20
8190.0
30
0
11
7280.0
21
8190.0
31
0
0
LINE
8
O-WIN
10
910.0
20
8190.0
30
0
11
2730.0
21
8190.0
31
0
0
LINE
8
O-WIN
10
4095.0
20
8190.0
30
0
11
5005.0
21
8190.0
31
0
0
LINE
8
O-WIN
10
5915.0
20
8190.0
30
0
11
6825.0
21
8190.0
31
0
0
LINE
8
V-WALL
10
-100.0
20
8090.0
30
0
11
910.0
21
8090.0
31
0
0
LINE
8
V-WALL
10
-100.0
20
8290.0
30
0
11
910.0
21
8290.0
31
0
0
LINE
8
V-WALL
10
2730.0
20
8090.0
30
0
11
4095.0
21
8090.0
31
0
0
LINE
8
V-WALL
10
2730.0
20
8290.0
30
0
11
4095.0
21
8290.0
31
0
0
LINE
8
V-WALL
10
5005.0
20
8090.0
30
0
11
5915.0
21
8090.0
31
0
0
LINE
8
V-WALL
10
5005.0
20
8290.0
30
0
11
5915.0
21
8290.0
31
0
0
LINE
8
V-WALL
10
6825.0
20
8090.0
30
0
11
7380.0
21
8090.0
31
0
0
LINE
8
V-WALL
10
6825.0
20
8290.0
30
0
11
7380.0
21
8290.0
31
0
0
LINE
8
V-WALL
10
910.0
20
8090.0
30
0
11
910.0
21
8290.0
31
0
0
LINE
8
V-WALL
10
2730.0
20
8090.0
30
0
11
2730.0
21
8290.0
31
0
0
LINE
8
V-FIX
10
910.0
20
8156.7
30
0
11
2730.0
21
8156.7
31
0
0
LINE
8
V-FIX
10
910.0
20
8223.3
30
0
11
2730.0
21
8223.3
31
0
0
LINE
8
V-WALL
10
4095.0
20
8090.0
30
0
11
4095.0
21
8290.0
31
0
0
LINE
8
V-WALL
10
5005.0
20
8090.0
30
0
11
5005.0
21
8290.0
31
0
0
LINE
8
V-FIX
10
4095.0
20
8156.7
30
0
11
5005.0
21
8156.7
31
0
0
LINE
8
V-FIX
10
4095.0
20
8223.3
30
0
11
5005.0
21
8223.3
31
0
0
LINE
8
V-WALL
10
5915.0
20
8090.0
30
0
11
5915.0
21
8290.0
31
0
0
LINE
8
V-WALL
10
6825.0
20
8090.0
30
0
11
6825.0
21
8290.0
31
0
0
LINE
8
V-FIX
10
5915.0
20
8156.7
30
0
11
6825.0
21
8156.7
31
0
0
LINE
8
V-FIX
10
5915.0
20
8223.3
30
0
11
6825.0
21
8223.3
31
0
0
LINE
8
W-EXT-200
10
0.0
20
0.0
30
0
11
0.0
21
8190.0
31
0
0
LINE
8
O-WIN
10
0.0
20
2730.0
30
0
11
0.0
21
4550.0
31
0
0
LINE
8
O-WIN
10
0.0
20
6370.0
30
0
11
0.0
21
7280.0
31
0
0
LINE
8
V-WALL
10
-100.0
20
-100.0
30
0
11
-100.0
21
2730.0
31
0
0
LINE
8
V-WALL
10
100.0
20
-100.0
30
0
11
100.0
21
2730.0
31
0
0
LINE
8
V-WALL
10
-100.0
20
4550.0
30
0
11
-100.0
21
6370.0
31
0
0
LINE
8
V-WALL
10
100.0
20
4550.0
30
0
11
100.0
21
6370.0
31
0
0
LINE
8
V-WALL
10
-100.0
20
7280.0
30
0
11
-100.0
21
8290.0
31
0
0
LINE
8
V-WALL
10
100.0
20
7280.0
30
0
11
100.0
21
8290.0
31
0
0
LINE
8
V-WALL
10
-100.0
20
2730.0
30
0
11
100.0
21
2730.0
31
0
0
LINE
8
V-WALL
10
-100.0
20
4550.0
30
0
11
100.0
21
4550.0
31
0
0
LINE
8
V-FIX
10
-33.3
20
2730.0
30
0
11
-33.3
21
4550.0
31
0
0
LINE
8
V-FIX
10
33.3
20
2730.0
30
0
11
33.3
21
4550.0
31
0
0
LINE
8
V-WALL
10
-100.0
20
6370.0
30
0
11
100.0
21
6370.0
31
0
0
LINE
8
V-WALL
10
-100.0
20
7280.0
30
0
11
100.0
21
7280.0
31
0
0
LINE
8
V-FIX
10
-33.3
20
6370.0
30
0
11
-33.3
21
7280.0
31
0
0
LINE
8
V-FIX
10
33.3
20
6370.0
30
0
11
33.3
21
7280.0
31
0
0
LINE
8
W-EXT-200
10
7280.0
20
0.0
30
0
11
7280.0
21
8190.0
31
0
0
LINE
8
O-WIN
10
7280.0
20
910.0
30
0
11
7280.0
21
1820.0
31
0
0
LINE
8
O-WIN
10
7280.0
20
2960.0
30
0
11
7280.0
21
3410.0
31
0
0
LINE
8
O-WIN
10
7280.0
20
4095.0
30
0
11
7280.0
21
5005.0
31
0
0
LINE
8
V-WALL
10
7180.0
20
-100.0
30
0
11
7180.0
21
910.0
31
0
0
LINE
8
V-WALL
10
7380.0
20
-100.0
30
0
11
7380.0
21
910.0
31
0
0
LINE
8
V-WALL
10
7180.0
20
1820.0
30
0
11
7180.0
21
2960.0
31
0
0
LINE
8
V-WALL
10
7380.0
20
1820.0
30
0
11
7380.0
21
2960.0
31
0
0
LINE
8
V-WALL
10
7180.0
20
3410.0
30
0
11
7180.0
21
4095.0
31
0
0
LINE
8
V-WALL
10
7380.0
20
3410.0
30
0
11
7380.0
21
4095.0
31
0
0
LINE
8
V-WALL
10
7180.0
20
5005.0
30
0
11
7180.0
21
8290.0
31
0
0
LINE
8
V-WALL
10
7380.0
20
5005.0
30
0
11
7380.0
21
8290.0
31
0
0
LINE
8
V-WALL
10
7180.0
20
910.0
30
0
11
7380.0
21
910.0
31
0
0
LINE
8
V-WALL
10
7180.0
20
1820.0
30
0
11
7380.0
21
1820.0
31
0
0
LINE
8
V-FIX
10
7246.7
20
910.0
30
0
11
7246.7
21
1820.0
31
0
0
LINE
8
V-FIX
10
7313.3
20
910.0
30
0
11
7313.3
21
1820.0
31
0
0
LINE
8
V-WALL
10
7180.0
20
2960.0
30
0
11
7380.0
21
2960.0
31
0
0
LINE
8
V-WALL
10
7180.0
20
3410.0
30
0
11
7380.0
21
3410.0
31
0
0
LINE
8
V-FIX
10
7246.7
20
2960.0
30
0
11
7246.7
21
3410.0
31
0
0
LINE
8
V-FIX
10
7313.3
20
2960.0
30
0
11
7313.3
21
3410.0
31
0
0
LINE
8
V-WALL
10
7180.0
20
4095.0
30
0
11
7380.0
21
4095.0
31
0
0
LINE
8
V-WALL
10
7180.0
20
5005.0
30
0
11
7380.0
21
5005.0
31
0
0
LINE
8
V-FIX
10
7246.7
20
4095.0
30
0
11
7246.7
21
5005.0
31
0
0
LINE
8
V-FIX
10
7313.3
20
4095.0
30
0
11
7313.3
21
5005.0
31
0
0
LINE
8
W-INT-100
10
3640.0
20
0.0
30
0
11
3640.0
21
8190.0
31
0
0
LINE
8
O-OPEN
10
3640.0
20
2730.0
30
0
11
3640.0
21
3640.0
31
0
0
LINE
8
V-WALL
10
3590.0
20
100.0
30
0
11
3590.0
21
2730.0
31
0
0
LINE
8
V-WALL
10
3690.0
20
100.0
30
0
11
3690.0
21
2730.0
31
0
0
LINE
8
V-WALL
10
3590.0
20
3640.0
30
0
11
3590.0
21
8090.0
31
0
0
LINE
8
V-WALL
10
3690.0
20
3640.0
30
0
11
3690.0
21
8090.0
31
0
0
LINE
8
V-WALL
10
3590.0
20
2730.0
30
0
11
3690.0
21
2730.0
31
0
0
LINE
8
V-WALL
10
3590.0
20
3640.0
30
0
11
3690.0
21
3640.0
31
0
0
LINE
8
W-INT-100
10
5460.0
20
0.0
30
0
11
5460.0
21
8190.0
31
0
0
LINE
8
O-DOOR
10
5460.0
20
910.0
30
0
11
5460.0
21
1820.0
31
0
0
LINE
8
O-DOOR
10
5460.0
20
2810.0
30
0
11
5460.0
21
3560.0
31
0
0
LINE
8
O-DOOR
10
5460.0
20
3820.0
30
0
11
5460.0
21
4730.0
31
0
0
LINE
8
V-WALL
10
5410.0
20
100.0
30
0
11
5410.0
21
910.0
31
0
0
LINE
8
V-WALL
10
5510.0
20
100.0
30
0
11
5510.0
21
910.0
31
0
0
LINE
8
V-WALL
10
5410.0
20
1820.0
30
0
11
5410.0
21
2810.0
31
0
0
LINE
8
V-WALL
10
5510.0
20
1820.0
30
0
11
5510.0
21
2810.0
31
0
0
LINE
8
V-WALL
10
5410.0
20
3560.0
30
0
11
5410.0
21
3820.0
31
0
0
LINE
8
V-WALL
10
5510.0
20
3560.0
30
0
11
5510.0
21
3820.0
31
0
0
LINE
8
V-WALL
10
5410.0
20
4730.0
30
0
11
5410.0
21
8090.0
31
0
0
LINE
8
V-WALL
10
5510.0
20
4730.0
30
0
11
5510.0
21
8090.0
31
0
0
LINE
8
V-WALL
10
5410.0
20
910.0
30
0
11
5510.0
21
910.0
31
0
0
LINE
8
V-WALL
10
5410.0
20
1820.0
30
0
11
5510.0
21
1820.0
31
0
0
ARC
8
V-FIX
10
5460.0
20
1000.0
30
0
40
730.0
50
0.0
51
90.0
0
LINE
8
V-FIX
10
5460.0
20
1000.0
30
0
11
6190.0
21
1000.0
31
0
0
LINE
8
V-WALL
10
5410.0
20
2810.0
30
0
11
5510.0
21
2810.0
31
0
0
LINE
8
V-WALL
10
5410.0
20
3560.0
30
0
11
5510.0
21
3560.0
31
0
0
ARC
8
V-FIX
10
5460.0
20
2900.0
30
0
40
570.0
50
0.0
51
90.0
0
LINE
8
V-FIX
10
5460.0
20
2900.0
30
0
11
6030.0
21
2900.0
31
0
0
LINE
8
V-WALL
10
5410.0
20
3820.0
30
0
11
5510.0
21
3820.0
31
0
0
LINE
8
V-WALL
10
5410.0
20
4730.0
30
0
11
5510.0
21
4730.0
31
0
0
ARC
8
V-FIX
10
5460.0
20
3910.0
30
0
40
730.0
50
0.0
51
90.0
0
LINE
8
V-FIX
10
5460.0
20
3910.0
30
0
11
6190.0
21
3910.0
31
0
0
LINE
8
W-INT-100
10
5460.0
20
2730.0
30
0
11
7280.0
21
2730.0
31
0
0
LINE
8
O-DOOR
10
6415.0
20
2730.0
30
0
11
7235.0
21
2730.0
31
0
0
LINE
8
V-WALL
10
5410.0
20
2680.0
30
0
11
6415.0
21
2680.0
31
0
0
LINE
8
V-WALL
10
5410.0
20
2780.0
30
0
11
6415.0
21
2780.0
31
0
0
LINE
8
V-WALL
10
6415.0
20
2680.0
30
0
11
6415.0
21
2780.0
31
0
0
LINE
8
V-WALL
10
7235.0
20
2680.0
30
0
11
7235.0
21
2780.0
31
0
0
ARC
8
V-FIX
10
6505.0
20
2730.0
30
0
40
640.0
50
270.0
51
360.0
0
LINE
8
V-FIX
10
6505.0
20
2730.0
30
0
11
6505.0
21
2090.0
31
0
0
LINE
8
W-INT-100
10
6370.0
20
2730.0
30
0
11
6370.0
21
3640.0
31
0
0
LINE
8
V-WALL
10
6320.0
20
2780.0
30
0
11
6320.0
21
3590.0
31
0
0
LINE
8
V-WALL
10
6420.0
20
2780.0
30
0
11
6420.0
21
3590.0
31
0
0
LINE
8
W-INT-100
10
5460.0
20
3640.0
30
0
11
7280.0
21
3640.0
31
0
0
LINE
8
V-WALL
10
5410.0
20
3590.0
30
0
11
7180.0
21
3590.0
31
0
0
LINE
8
V-WALL
10
5410.0
20
3690.0
30
0
11
7180.0
21
3690.0
31
0
0
LINE
8
W-INT-100
10
3640.0
20
5460.0
30
0
11
7280.0
21
5460.0
31
0
0
LINE
8
O-OPEN
10
4550.0
20
5460.0
30
0
11
5460.0
21
5460.0
31
0
0
LINE
8
O-DOOR
10
5915.0
20
5460.0
30
0
11
6825.0
21
5460.0
31
0
0
LINE
8
V-WALL
10
3690.0
20
5410.0
30
0
11
4550.0
21
5410.0
31
0
0
LINE
8
V-WALL
10
3690.0
20
5510.0
30
0
11
4550.0
21
5510.0
31
0
0
LINE
8
V-WALL
10
5460.0
20
5410.0
30
0
11
5915.0
21
5410.0
31
0
0
LINE
8
V-WALL
10
5460.0
20
5510.0
30
0
11
5915.0
21
5510.0
31
0
0
LINE
8
V-WALL
10
6825.0
20
5410.0
30
0
11
7180.0
21
5410.0
31
0
0
LINE
8
V-WALL
10
6825.0
20
5510.0
30
0
11
7180.0
21
5510.0
31
0
0
LINE
8
V-WALL
10
4550.0
20
5410.0
30
0
11
4550.0
21
5510.0
31
0
0
LINE
8
V-WALL
10
5460.0
20
5410.0
30
0
11
5460.0
21
5510.0
31
0
0
LINE
8
V-WALL
10
5915.0
20
5410.0
30
0
11
5915.0
21
5510.0
31
0
0
LINE
8
V-WALL
10
6825.0
20
5410.0
30
0
11
6825.0
21
5510.0
31
0
0
ARC
8
V-FIX
10
6005.0
20
5460.0
30
0
40
730.0
50
0.0
51
90.0
0
LINE
8
V-FIX
10
6005.0
20
5460.0
30
0
11
6005.0
21
6190.0
31
0
0
LINE
8
W-INT-100
10
4550.0
20
5460.0
30
0
11
4550.0
21
7280.0
31
0
0
LINE
8
V-WALL
10
4500.0
20
5410.0
30
0
11
4500.0
21
7280.0
31
0
0
LINE
8
V-WALL
10
4600.0
20
5410.0
30
0
11
4600.0
21
7280.0
31
0
0
LINE
8
S-RUN-7
10
4600.0
20
5510.0
30
0
11
5410.0
21
5510.0
31
0
0
LINE
8
S-RUN-7
10
5410.0
20
5510.0
30
0
11
5410.0
21
7280.0
31
0
0
LINE
8
S-RUN-7
10
5410.0
20
7280.0
30
0
11
4600.0
21
7280.0
31
0
0
LINE
8
S-RUN-7
10
4600.0
20
7280.0
30
0
11
4600.0
21
5510.0
31
0
0
LINE
8
S-RUN-7
10
3690.0
20
5510.0
30
0
11
4500.0
21
5510.0
31
0
0
LINE
8
S-RUN-7
10
4500.0
20
5510.0
30
0
11
4500.0
21
7280.0
31
0
0
LINE
8
S-RUN-7
10
4500.0
20
7280.0
30
0
11
3690.0
21
7280.0
31
0
0
LINE
8
S-RUN-7
10
3690.0
20
7280.0
30
0
11
3690.0
21
5510.0
31
0
0
LINE
8
S-LAND
10
3690.0
20
7280.0
30
0
11
5410.0
21
7280.0
31
0
0
LINE
8
S-LAND
10
5410.0
20
7280.0
30
0
11
5410.0
21
8090.0
31
0
0
LINE
8
S-LAND
10
5410.0
20
8090.0
30
0
11
3690.0
21
8090.0
31
0
0
LINE
8
S-LAND
10
3690.0
20
8090.0
30
0
11
3690.0
21
7280.0
31
0
0
LINE
8
S-UP
10
5005.0
20
5510.0
30
0
11
5005.0
21
7685.0
31
0
0
LINE
8
S-UP
10
5005.0
20
7685.0
30
0
11
4095.0
21
7685.0
31
0
0
LINE
8
S-UP
10
4095.0
20
7685.0
30
0
11
4095.0
21
5510.0
31
0
0
LINE
8
V-STAIR
10
3690.0
20
7280.0
30
0
11
5410.0
21
7280.0
31
0
0
LINE
8
V-STAIR
10
5410.0
20
7280.0
30
0
11
5410.0
21
8090.0
31
0
0
LINE
8
V-STAIR
10
5410.0
20
8090.0
30
0
11
3690.0
21
8090.0
31
0
0
LINE
8
V-STAIR
10
3690.0
20
8090.0
30
0
11
3690.0
21
7280.0
31
0
0
LINE
8
V-STAIR
10
4600.0
20
5510.0
30
0
11
5410.0
21
5510.0
31
0
0
LINE
8
V-STAIR
10
5410.0
20
5510.0
30
0
11
5410.0
21
7280.0
31
0
0
LINE
8
V-STAIR
10
5410.0
20
7280.0
30
0
11
4600.0
21
7280.0
31
0
0
LINE
8
V-STAIR
10
4600.0
20
7280.0
30
0
11
4600.0
21
5510.0
31
0
0
LINE
8
V-STAIR
10
3690.0
20
5510.0
30
0
11
4500.0
21
5510.0
31
0
0
LINE
8
V-STAIR
10
4500.0
20
5510.0
30
0
11
4500.0
21
7280.0
31
0
0
LINE
8
V-STAIR
10
4500.0
20
7280.0
30
0
11
3690.0
21
7280.0
31
0
0
LINE
8
V-STAIR
10
3690.0
20
7280.0
30
0
11
3690.0
21
5510.0
31
0
0
LINE
8
V-STAIR
10
4500.0
20
7280.0
30
0
11
4600.0
21
7280.0
31
0
0
LINE
8
V-STAIR
10
4600.0
20
5762.9
30
0
11
5410.0
21
5762.9
31
0
0
LINE
8
V-STAIR
10
4600.0
20
6015.7
30
0
11
5410.0
21
6015.7
31
0
0
LINE
8
V-STAIR
10
4600.0
20
6268.6
30
0
11
5410.0
21
6268.6
31
0
0
LINE
8
V-STAIR
10
4600.0
20
6521.4
30
0
11
5410.0
21
6521.4
31
0
0
LINE
8
V-STAIR
10
4600.0
20
6774.3
30
0
11
5410.0
21
6774.3
31
0
0
LINE
8
V-STAIR
10
4600.0
20
7027.1
30
0
11
5410.0
21
7027.1
31
0
0
LINE
8
V-STAIR
10
3690.0
20
7027.1
30
0
11
4500.0
21
7027.1
31
0
0
LINE
8
V-STAIR
10
3690.0
20
6774.3
30
0
11
4500.0
21
6774.3
31
0
0
LINE
8
V-STAIR
10
3690.0
20
6521.4
30
0
11
4500.0
21
6521.4
31
0
0
LINE
8
V-STAIR
10
3690.0
20
6268.6
30
0
11
4500.0
21
6268.6
31
0
0
LINE
8
V-STAIR
10
3690.0
20
6015.7
30
0
11
4500.0
21
6015.7
31
0
0
LINE
8
V-STAIR
10
3690.0
20
5762.9
30
0
11
4500.0
21
5762.9
31
0
0
LINE
8
V-STAIR
10
5005.0
20
5660.0
30
0
11
5005.0
21
7685.0
31
0
0
LINE
8
V-STAIR
10
5005.0
20
7685.0
30
0
11
4095.0
21
7685.0
31
0
0
LINE
8
V-STAIR
10
4095.0
20
7685.0
30
0
11
4095.0
21
5660.0
31
0
0
LINE
8
V-STAIR
10
4095.0
20
5660.0
30
0
11
3985.0
21
5850.0
31
0
0
LINE
8
V-STAIR
10
4095.0
20
5660.0
30
0
11
4205.0
21
5850.0
31
0
0
TEXT
8
V-TEXT
10
4330.0
20
5080.0
30
0
40
200.0
1
UP
0
TEXT
8
V-TEXT
10
3780.0
20
7790.0
30
0
40
190.0
1
踊り場
0
LINE
8
GRID
10
0.0
20
-700.0
30
0
11
0.0
21
8890.0
31
0
0
CIRCLE
8
GRID
10
0.0
20
9140.0
30
0
40
250.0
0
TEXT
8
V-TEXT
10
-120.0
20
9040.0
30
0
40
200.0
1
X1
0
LINE
8
GRID
10
3640.0
20
-700.0
30
0
11
3640.0
21
8890.0
31
0
0
CIRCLE
8
GRID
10
3640.0
20
9140.0
30
0
40
250.0
0
TEXT
8
V-TEXT
10
3520.0
20
9040.0
30
0
40
200.0
1
X2
0
LINE
8
GRID
10
7280.0
20
-700.0
30
0
11
7280.0
21
8890.0
31
0
0
CIRCLE
8
GRID
10
7280.0
20
9140.0
30
0
40
250.0
0
TEXT
8
V-TEXT
10
7160.0
20
9040.0
30
0
40
200.0
1
X3
0
LINE
8
GRID
10
-700.0
20
0.0
30
0
11
7980.0
21
0.0
31
0
0
CIRCLE
8
GRID
10
-950.0
20
0.0
30
0
40
250.0
0
TEXT
8
V-TEXT
10
-1070.0
20
-100.0
30
0
40
200.0
1
Y1
0
LINE
8
GRID
10
-700.0
20
4550.0
30
0
11
7980.0
21
4550.0
31
0
0
CIRCLE
8
GRID
10
-950.0
20
4550.0
30
0
40
250.0
0
TEXT
8
V-TEXT
10
-1070.0
20
4450.0
30
0
40
200.0
1
Y2
0
LINE
8
GRID
10
-700.0
20
8190.0
30
0
11
7980.0
21
8190.0
31
0
0
CIRCLE
8
GRID
10
-950.0
20
8190.0
30
0
40
250.0
0
TEXT
8
V-TEXT
10
-1070.0
20
8090.0
30
0
40
200.0
1
Y3
0
TEXT
8
V-TEXT
10
1100.0
20
4000.0
30
0
40
260.0
1
LDK
0
TEXT
8
V-TEXT
10
3760.0
20
600.0
30
0
40
260.0
1
玄関
0
TEXT
8
V-TEXT
10
3900.0
20
3000.0
30
0
40
260.0
1
ホール
0
TEXT
8
V-TEXT
10
5950.0
20
1150.0
30
0
40
260.0
1
和室
0
TEXT
8
V-TEXT
10
5540.0
20
2870.0
30
0
40
260.0
1
WC
0
TEXT
8
V-TEXT
10
6480.0
20
2870.0
30
0
40
260.0
1
押入
0
TEXT
8
V-TEXT
10
5900.0
20
4400.0
30
0
40
260.0
1
洗面
0
TEXT
8
V-TEXT
10
5900.0
20
6600.0
30
0
40
260.0
1
浴室
0
TEXT
8
V-TEXT
10
200.0
20
9790.0
30
0
40
350.0
1
1階平面図
0
LINE
8
W-EXT-200
10
12000.0
20
0.0
30
0
11
19280.0
21
0.0
31
0
0
LINE
8
O-WIN
10
12910.0
20
0.0
30
0
11
14730.0
21
0.0
31
0
0
LINE
8
O-WIN
10
15865.0
20
0.0
30
0
11
16315.0
21
0.0
31
0
0
LINE
8
O-WIN
10
17915.0
20
0.0
30
0
11
18825.0
21
0.0
31
0
0
LINE
8
V-WALL
10
11900.0
20
-100.0
30
0
11
12910.0
21
-100.0
31
0
0
LINE
8
V-WALL
10
11900.0
20
100.0
30
0
11
12910.0
21
100.0
31
0
0
LINE
8
V-WALL
10
14730.0
20
-100.0
30
0
11
15865.0
21
-100.0
31
0
0
LINE
8
V-WALL
10
14730.0
20
100.0
30
0
11
15865.0
21
100.0
31
0
0
LINE
8
V-WALL
10
16315.0
20
-100.0
30
0
11
17915.0
21
-100.0
31
0
0
LINE
8
V-WALL
10
16315.0
20
100.0
30
0
11
17915.0
21
100.0
31
0
0
LINE
8
V-WALL
10
18825.0
20
-100.0
30
0
11
19380.0
21
-100.0
31
0
0
LINE
8
V-WALL
10
18825.0
20
100.0
30
0
11
19380.0
21
100.0
31
0
0
LINE
8
V-WALL
10
12910.0
20
-100.0
30
0
11
12910.0
21
100.0
31
0
0
LINE
8
V-WALL
10
14730.0
20
-100.0
30
0
11
14730.0
21
100.0
31
0
0
LINE
8
V-FIX
10
12910.0
20
-33.3
30
0
11
14730.0
21
-33.3
31
0
0
LINE
8
V-FIX
10
12910.0
20
33.3
30
0
11
14730.0
21
33.3
31
0
0
LINE
8
V-WALL
10
15865.0
20
-100.0
30
0
11
15865.0
21
100.0
31
0
0
LINE
8
V-WALL
10
16315.0
20
-100.0
30
0
11
16315.0
21
100.0
31
0
0
LINE
8
V-FIX
10
15865.0
20
-33.3
30
0
11
16315.0
21
-33.3
31
0
0
LINE
8
V-FIX
10
15865.0
20
33.3
30
0
11
16315.0
21
33.3
31
0
0
LINE
8
V-WALL
10
17915.0
20
-100.0
30
0
11
17915.0
21
100.0
31
0
0
LINE
8
V-WALL
10
18825.0
20
-100.0
30
0
11
18825.0
21
100.0
31
0
0
LINE
8
V-FIX
10
17915.0
20
-33.3
30
0
11
18825.0
21
-33.3
31
0
0
LINE
8
V-FIX
10
17915.0
20
33.3
30
0
11
18825.0
21
33.3
31
0
0
LINE
8
W-EXT-200
10
12000.0
20
8190.0
30
0
11
19280.0
21
8190.0
31
0
0
LINE
8
O-WIN
10
12910.0
20
8190.0
30
0
11
14730.0
21
8190.0
31
0
0
LINE
8
O-WIN
10
16095.0
20
8190.0
30
0
11
17005.0
21
8190.0
31
0
0
LINE
8
O-WIN
10
17915.0
20
8190.0
30
0
11
18825.0
21
8190.0
31
0
0
LINE
8
V-WALL
10
11900.0
20
8090.0
30
0
11
12910.0
21
8090.0
31
0
0
LINE
8
V-WALL
10
11900.0
20
8290.0
30
0
11
12910.0
21
8290.0
31
0
0
LINE
8
V-WALL
10
14730.0
20
8090.0
30
0
11
16095.0
21
8090.0
31
0
0
LINE
8
V-WALL
10
14730.0
20
8290.0
30
0
11
16095.0
21
8290.0
31
0
0
LINE
8
V-WALL
10
17005.0
20
8090.0
30
0
11
17915.0
21
8090.0
31
0
0
LINE
8
V-WALL
10
17005.0
20
8290.0
30
0
11
17915.0
21
8290.0
31
0
0
LINE
8
V-WALL
10
18825.0
20
8090.0
30
0
11
19380.0
21
8090.0
31
0
0
LINE
8
V-WALL
10
18825.0
20
8290.0
30
0
11
19380.0
21
8290.0
31
0
0
LINE
8
V-WALL
10
12910.0
20
8090.0
30
0
11
12910.0
21
8290.0
31
0
0
LINE
8
V-WALL
10
14730.0
20
8090.0
30
0
11
14730.0
21
8290.0
31
0
0
LINE
8
V-FIX
10
12910.0
20
8156.7
30
0
11
14730.0
21
8156.7
31
0
0
LINE
8
V-FIX
10
12910.0
20
8223.3
30
0
11
14730.0
21
8223.3
31
0
0
LINE
8
V-WALL
10
16095.0
20
8090.0
30
0
11
16095.0
21
8290.0
31
0
0
LINE
8
V-WALL
10
17005.0
20
8090.0
30
0
11
17005.0
21
8290.0
31
0
0
LINE
8
V-FIX
10
16095.0
20
8156.7
30
0
11
17005.0
21
8156.7
31
0
0
LINE
8
V-FIX
10
16095.0
20
8223.3
30
0
11
17005.0
21
8223.3
31
0
0
LINE
8
V-WALL
10
17915.0
20
8090.0
30
0
11
17915.0
21
8290.0
31
0
0
LINE
8
V-WALL
10
18825.0
20
8090.0
30
0
11
18825.0
21
8290.0
31
0
0
LINE
8
V-FIX
10
17915.0
20
8156.7
30
0
11
18825.0
21
8156.7
31
0
0
LINE
8
V-FIX
10
17915.0
20
8223.3
30
0
11
18825.0
21
8223.3
31
0
0
LINE
8
W-EXT-200
10
12000.0
20
0.0
30
0
11
12000.0
21
8190.0
31
0
0
LINE
8
O-WIN
10
12000.0
20
1820.0
30
0
11
12000.0
21
3640.0
31
0
0
LINE
8
O-WIN
10
12000.0
20
5460.0
30
0
11
12000.0
21
7280.0
31
0
0
LINE
8
V-WALL
10
11900.0
20
-100.0
30
0
11
11900.0
21
1820.0
31
0
0
LINE
8
V-WALL
10
12100.0
20
-100.0
30
0
11
12100.0
21
1820.0
31
0
0
LINE
8
V-WALL
10
11900.0
20
3640.0
30
0
11
11900.0
21
5460.0
31
0
0
LINE
8
V-WALL
10
12100.0
20
3640.0
30
0
11
12100.0
21
5460.0
31
0
0
LINE
8
V-WALL
10
11900.0
20
7280.0
30
0
11
11900.0
21
8290.0
31
0
0
LINE
8
V-WALL
10
12100.0
20
7280.0
30
0
11
12100.0
21
8290.0
31
0
0
LINE
8
V-WALL
10
11900.0
20
1820.0
30
0
11
12100.0
21
1820.0
31
0
0
LINE
8
V-WALL
10
11900.0
20
3640.0
30
0
11
12100.0
21
3640.0
31
0
0
LINE
8
V-FIX
10
11966.7
20
1820.0
30
0
11
11966.7
21
3640.0
31
0
0
LINE
8
V-FIX
10
12033.3
20
1820.0
30
0
11
12033.3
21
3640.0
31
0
0
LINE
8
V-WALL
10
11900.0
20
5460.0
30
0
11
12100.0
21
5460.0
31
0
0
LINE
8
V-WALL
10
11900.0
20
7280.0
30
0
11
12100.0
21
7280.0
31
0
0
LINE
8
V-FIX
10
11966.7
20
5460.0
30
0
11
11966.7
21
7280.0
31
0
0
LINE
8
V-FIX
10
12033.3
20
5460.0
30
0
11
12033.3
21
7280.0
31
0
0
LINE
8
W-EXT-200
10
19280.0
20
0.0
30
0
11
19280.0
21
8190.0
31
0
0
LINE
8
O-WIN
10
19280.0
20
1820.0
30
0
11
19280.0
21
3640.0
31
0
0
LINE
8
O-WIN
10
19280.0
20
6370.0
30
0
11
19280.0
21
7280.0
31
0
0
LINE
8
V-WALL
10
19180.0
20
-100.0
30
0
11
19180.0
21
1820.0
31
0
0
LINE
8
V-WALL
10
19380.0
20
-100.0
30
0
11
19380.0
21
1820.0
31
0
0
LINE
8
V-WALL
10
19180.0
20
3640.0
30
0
11
19180.0
21
6370.0
31
0
0
LINE
8
V-WALL
10
19380.0
20
3640.0
30
0
11
19380.0
21
6370.0
31
0
0
LINE
8
V-WALL
10
19180.0
20
7280.0
30
0
11
19180.0
21
8290.0
31
0
0
LINE
8
V-WALL
10
19380.0
20
7280.0
30
0
11
19380.0
21
8290.0
31
0
0
LINE
8
V-WALL
10
19180.0
20
1820.0
30
0
11
19380.0
21
1820.0
31
0
0
LINE
8
V-WALL
10
19180.0
20
3640.0
30
0
11
19380.0
21
3640.0
31
0
0
LINE
8
V-FIX
10
19246.7
20
1820.0
30
0
11
19246.7
21
3640.0
31
0
0
LINE
8
V-FIX
10
19313.3
20
1820.0
30
0
11
19313.3
21
3640.0
31
0
0
LINE
8
V-WALL
10
19180.0
20
6370.0
30
0
11
19380.0
21
6370.0
31
0
0
LINE
8
V-WALL
10
19180.0
20
7280.0
30
0
11
19380.0
21
7280.0
31
0
0
LINE
8
V-FIX
10
19246.7
20
6370.0
30
0
11
19246.7
21
7280.0
31
0
0
LINE
8
V-FIX
10
19313.3
20
6370.0
30
0
11
19313.3
21
7280.0
31
0
0
LINE
8
W-INT-100
10
15640.0
20
0.0
30
0
11
15640.0
21
8190.0
31
0
0
LINE
8
O-DOOR
10
15640.0
20
2730.0
30
0
11
15640.0
21
3640.0
31
0
0
LINE
8
O-DOOR
10
15640.0
20
4640.0
30
0
11
15640.0
21
5370.0
31
0
0
LINE
8
V-WALL
10
15590.0
20
100.0
30
0
11
15590.0
21
2730.0
31
0
0
LINE
8
V-WALL
10
15690.0
20
100.0
30
0
11
15690.0
21
2730.0
31
0
0
LINE
8
V-WALL
10
15590.0
20
3640.0
30
0
11
15590.0
21
4640.0
31
0
0
LINE
8
V-WALL
10
15690.0
20
3640.0
30
0
11
15690.0
21
4640.0
31
0
0
LINE
8
V-WALL
10
15590.0
20
5370.0
30
0
11
15590.0
21
8090.0
31
0
0
LINE
8
V-WALL
10
15690.0
20
5370.0
30
0
11
15690.0
21
8090.0
31
0
0
LINE
8
V-WALL
10
15590.0
20
2730.0
30
0
11
15690.0
21
2730.0
31
0
0
LINE
8
V-WALL
10
15590.0
20
3640.0
30
0
11
15690.0
21
3640.0
31
0
0
ARC
8
V-FIX
10
15640.0
20
2820.0
30
0
40
730.0
50
90.0
51
180.0
0
LINE
8
V-FIX
10
15640.0
20
2820.0
30
0
11
14910.0
21
2820.0
31
0
0
LINE
8
V-WALL
10
15590.0
20
4640.0
30
0
11
15690.0
21
4640.0
31
0
0
LINE
8
V-WALL
10
15590.0
20
5370.0
30
0
11
15690.0
21
5370.0
31
0
0
ARC
8
V-FIX
10
15640.0
20
4730.0
30
0
40
550.0
50
90.0
51
180.0
0
LINE
8
V-FIX
10
15640.0
20
4730.0
30
0
11
15090.0
21
4730.0
31
0
0
LINE
8
W-INT-100
10
12000.0
20
4550.0
30
0
11
15640.0
21
4550.0
31
0
0
LINE
8
V-WALL
10
12100.0
20
4500.0
30
0
11
15590.0
21
4500.0
31
0
0
LINE
8
V-WALL
10
12100.0
20
4600.0
30
0
11
15590.0
21
4600.0
31
0
0
LINE
8
W-INT-100
10
17460.0
20
0.0
30
0
11
17460.0
21
8190.0
31
0
0
LINE
8
O-DOOR
10
17460.0
20
2730.0
30
0
11
17460.0
21
3640.0
31
0
0
LINE
8
V-WALL
10
17410.0
20
100.0
30
0
11
17410.0
21
2730.0
31
0
0
LINE
8
V-WALL
10
17510.0
20
100.0
30
0
11
17510.0
21
2730.0
31
0
0
LINE
8
V-WALL
10
17410.0
20
3640.0
30
0
11
17410.0
21
8090.0
31
0
0
LINE
8
V-WALL
10
17510.0
20
3640.0
30
0
11
17510.0
21
8090.0
31
0
0
LINE
8
V-WALL
10
17410.0
20
2730.0
30
0
11
17510.0
21
2730.0
31
0
0
LINE
8
V-WALL
10
17410.0
20
3640.0
30
0
11
17510.0
21
3640.0
31
0
0
ARC
8
V-FIX
10
17460.0
20
2820.0
30
0
40
730.0
50
0.0
51
90.0
0
LINE
8
V-FIX
10
17460.0
20
2820.0
30
0
11
18190.0
21
2820.0
31
0
0
LINE
8
W-INT-100
10
15640.0
20
1820.0
30
0
11
17460.0
21
1820.0
31
0
0
LINE
8
O-DOOR
10
15730.0
20
1820.0
30
0
11
16460.0
21
1820.0
31
0
0
LINE
8
O-DOOR
10
16640.0
20
1820.0
30
0
11
17370.0
21
1820.0
31
0
0
LINE
8
V-WALL
10
15690.0
20
1770.0
30
0
11
15730.0
21
1770.0
31
0
0
LINE
8
V-WALL
10
15690.0
20
1870.0
30
0
11
15730.0
21
1870.0
31
0
0
LINE
8
V-WALL
10
16460.0
20
1770.0
30
0
11
16640.0
21
1770.0
31
0
0
LINE
8
V-WALL
10
16460.0
20
1870.0
30
0
11
16640.0
21
1870.0
31
0
0
LINE
8
V-WALL
10
17370.0
20
1770.0
30
0
11
17410.0
21
1770.0
31
0
0
LINE
8
V-WALL
10
17370.0
20
1870.0
30
0
11
17410.0
21
1870.0
31
0
0
LINE
8
V-WALL
10
15730.0
20
1770.0
30
0
11
15730.0
21
1870.0
31
0
0
LINE
8
V-WALL
10
16460.0
20
1770.0
30
0
11
16460.0
21
1870.0
31
0
0
ARC
8
V-FIX
10
15820.0
20
1820.0
30
0
40
550.0
50
270.0
51
360.0
0
LINE
8
V-FIX
10
15820.0
20
1820.0
30
0
11
15820.0
21
1270.0
31
0
0
LINE
8
V-WALL
10
16640.0
20
1770.0
30
0
11
16640.0
21
1870.0
31
0
0
LINE
8
V-WALL
10
17370.0
20
1770.0
30
0
11
17370.0
21
1870.0
31
0
0
ARC
8
V-FIX
10
16730.0
20
1820.0
30
0
40
550.0
50
270.0
51
360.0
0
LINE
8
V-FIX
10
16730.0
20
1820.0
30
0
11
16730.0
21
1270.0
31
0
0
LINE
8
W-INT-100
10
16550.0
20
0.0
30
0
11
16550.0
21
1820.0
31
0
0
LINE
8
V-WALL
10
16500.0
20
100.0
30
0
11
16500.0
21
1770.0
31
0
0
LINE
8
V-WALL
10
16600.0
20
100.0
30
0
11
16600.0
21
1770.0
31
0
0
LINE
8
W-INT-100
10
15640.0
20
5460.0
30
0
11
19280.0
21
5460.0
31
0
0
LINE
8
O-OPEN
10
15640.0
20
5460.0
30
0
11
16550.0
21
5460.0
31
0
0
LINE
8
O-DOOR
10
17915.0
20
5460.0
30
0
11
18825.0
21
5460.0
31
0
0
LINE
8
V-WALL
10
16550.0
20
5410.0
30
0
11
17915.0
21
5410.0
31
0
0
LINE
8
V-WALL
10
16550.0
20
5510.0
30
0
11
17915.0
21
5510.0
31
0
0
LINE
8
V-WALL
10
18825.0
20
5410.0
30
0
11
19180.0
21
5410.0
31
0
0
LINE
8
V-WALL
10
18825.0
20
5510.0
30
0
11
19180.0
21
5510.0
31
0
0
LINE
8
V-WALL
10
15640.0
20
5410.0
30
0
11
15640.0
21
5510.0
31
0
0
LINE
8
V-WALL
10
16550.0
20
5410.0
30
0
11
16550.0
21
5510.0
31
0
0
LINE
8
V-WALL
10
17915.0
20
5410.0
30
0
11
17915.0
21
5510.0
31
0
0
LINE
8
V-WALL
10
18825.0
20
5410.0
30
0
11
18825.0
21
5510.0
31
0
0
ARC
8
V-FIX
10
18005.0
20
5460.0
30
0
40
730.0
50
0.0
51
90.0
0
LINE
8
V-FIX
10
18005.0
20
5460.0
30
0
11
18005.0
21
6190.0
31
0
0
LINE
8
V-STAIR
10
15690.0
20
7280.0
30
0
11
17410.0
21
7280.0
31
0
0
LINE
8
V-STAIR
10
17410.0
20
7280.0
30
0
11
17410.0
21
8090.0
31
0
0
LINE
8
V-STAIR
10
17410.0
20
8090.0
30
0
11
15690.0
21
8090.0
31
0
0
LINE
8
V-STAIR
10
15690.0
20
8090.0
30
0
11
15690.0
21
7280.0
31
0
0
LINE
8
V-STAIR
10
16600.0
20
5510.0
30
0
11
17410.0
21
5510.0
31
0
0
LINE
8
V-STAIR
10
17410.0
20
5510.0
30
0
11
17410.0
21
7280.0
31
0
0
LINE
8
V-STAIR
10
17410.0
20
7280.0
30
0
11
16600.0
21
7280.0
31
0
0
LINE
8
V-STAIR
10
16600.0
20
7280.0
30
0
11
16600.0
21
5510.0
31
0
0
LINE
8
V-STAIR
10
15690.0
20
5510.0
30
0
11
16500.0
21
5510.0
31
0
0
LINE
8
V-STAIR
10
16500.0
20
5510.0
30
0
11
16500.0
21
7280.0
31
0
0
LINE
8
V-STAIR
10
16500.0
20
7280.0
30
0
11
15690.0
21
7280.0
31
0
0
LINE
8
V-STAIR
10
15690.0
20
7280.0
30
0
11
15690.0
21
5510.0
31
0
0
LINE
8
V-STAIR
10
16500.0
20
7280.0
30
0
11
16600.0
21
7280.0
31
0
0
LINE
8
V-STAIR
10
16600.0
20
5762.9
30
0
11
17410.0
21
5762.9
31
0
0
LINE
8
V-STAIR
10
16600.0
20
6015.7
30
0
11
17410.0
21
6015.7
31
0
0
LINE
8
V-STAIR
10
16600.0
20
6268.6
30
0
11
17410.0
21
6268.6
31
0
0
LINE
8
V-STAIR
10
16600.0
20
6521.4
30
0
11
17410.0
21
6521.4
31
0
0
LINE
8
V-STAIR
10
16600.0
20
6774.3
30
0
11
17410.0
21
6774.3
31
0
0
LINE
8
V-STAIR
10
16600.0
20
7027.1
30
0
11
17410.0
21
7027.1
31
0
0
LINE
8
V-STAIR
10
15690.0
20
7027.1
30
0
11
16500.0
21
7027.1
31
0
0
LINE
8
V-STAIR
10
15690.0
20
6774.3
30
0
11
16500.0
21
6774.3
31
0
0
LINE
8
V-STAIR
10
15690.0
20
6521.4
30
0
11
16500.0
21
6521.4
31
0
0
LINE
8
V-STAIR
10
15690.0
20
6268.6
30
0
11
16500.0
21
6268.6
31
0
0
LINE
8
V-STAIR
10
15690.0
20
6015.7
30
0
11
16500.0
21
6015.7
31
0
0
LINE
8
V-STAIR
10
15690.0
20
5762.9
30
0
11
16500.0
21
5762.9
31
0
0
LINE
8
V-STAIR
10
16095.0
20
5660.0
30
0
11
16095.0
21
7685.0
31
0
0
LINE
8
V-STAIR
10
16095.0
20
7685.0
30
0
11
17005.0
21
7685.0
31
0
0
LINE
8
V-STAIR
10
17005.0
20
7685.0
30
0
11
17005.0
21
5660.0
31
0
0
LINE
8
V-STAIR
10
17005.0
20
5660.0
30
0
11
16895.0
21
5850.0
31
0
0
LINE
8
V-STAIR
10
17005.0
20
5660.0
30
0
11
17115.0
21
5850.0
31
0
0
TEXT
8
V-TEXT
10
16330.0
20
5080.0
30
0
40
200.0
1
DN
0
TEXT
8
V-TEXT
10
15780.0
20
7790.0
30
0
40
190.0
1
踊り場
0
LINE
8
GRID
10
12000.0
20
-700.0
30
0
11
12000.0
21
8890.0
31
0
0
CIRCLE
8
GRID
10
12000.0
20
9140.0
30
0
40
250.0
0
TEXT
8
V-TEXT
10
11880.0
20
9040.0
30
0
40
200.0
1
X1
0
LINE
8
GRID
10
15640.0
20
-700.0
30
0
11
15640.0
21
8890.0
31
0
0
CIRCLE
8
GRID
10
15640.0
20
9140.0
30
0
40
250.0
0
TEXT
8
V-TEXT
10
15520.0
20
9040.0
30
0
40
200.0
1
X2
0
LINE
8
GRID
10
19280.0
20
-700.0
30
0
11
19280.0
21
8890.0
31
0
0
CIRCLE
8
GRID
10
19280.0
20
9140.0
30
0
40
250.0
0
TEXT
8
V-TEXT
10
19160.0
20
9040.0
30
0
40
200.0
1
X3
0
LINE
8
GRID
10
11300.0
20
0.0
30
0
11
19980.0
21
0.0
31
0
0
CIRCLE
8
GRID
10
11050.0
20
0.0
30
0
40
250.0
0
TEXT
8
V-TEXT
10
10930.0
20
-100.0
30
0
40
200.0
1
Y1
0
LINE
8
GRID
10
11300.0
20
4550.0
30
0
11
19980.0
21
4550.0
31
0
0
CIRCLE
8
GRID
10
11050.0
20
4550.0
30
0
40
250.0
0
TEXT
8
V-TEXT
10
10930.0
20
4450.0
30
0
40
200.0
1
Y2
0
LINE
8
GRID
10
11300.0
20
8190.0
30
0
11
19980.0
21
8190.0
31
0
0
CIRCLE
8
GRID
10
11050.0
20
8190.0
30
0
40
250.0
0
TEXT
8
V-TEXT
10
10930.0
20
8090.0
30
0
40
200.0
1
Y3
0
TEXT
8
V-TEXT
10
13100.0
20
2200.0
30
0
40
260.0
1
洋室A
0
TEXT
8
V-TEXT
10
13100.0
20
6300.0
30
0
40
260.0
1
洋室B
0
TEXT
8
V-TEXT
10
15900.0
20
3200.0
30
0
40
260.0
1
廊下
0
TEXT
8
V-TEXT
10
15750.0
20
900.0
30
0
40
260.0
1
WC
0
TEXT
8
V-TEXT
10
16680.0
20
900.0
30
0
40
260.0
1
物入
0
TEXT
8
V-TEXT
10
18100.0
20
2600.0
30
0
40
260.0
1
洋室C
0
TEXT
8
V-TEXT
10
18100.0
20
6600.0
30
0
40
260.0
1
納戸
0
TEXT
8
V-TEXT
10
12200.0
20
9790.0
30
0
40
350.0
1
2階平面図
0
ENDSEC
0
EOF
